<?xml version="1.0" standalone="no"?>
<!DOCTYPE svg PUBLIC "-//W3C//DTD SVG 20010904//EN"
 "http://www.w3.org/TR/2001/REC-SVG-20010904/DTD/svg10.dtd">
<svg version="1.0" xmlns="http://www.w3.org/2000/svg"
 width="819.000000pt" height="819.000000pt" viewBox="0 0 819.000000 819.000000"
 preserveAspectRatio="xMidYMid meet">
<metadata>
Created by potrace 1.14, written by Peter Selinger 2001-2017
</metadata>
<g transform="translate(0.000000,819.000000) scale(0.100000,-0.100000)"
fill="#000000" stroke="none">
<path d="M4070 6660 c-81 -22 -145 -84 -162 -157 l-12 -50 -263 0 -263 0 -68
-33 c-37 -18 -69 -36 -72 -40 -9 -13 -194 -107 -225 -114 -86 -21 -141 -80
-152 -166 -10 -75 47 -170 101 -170 20 0 26 -5 26 -22 0 -13 9 -36 19 -51 20
-31 111 -128 156 -165 31 -27 33 -25 -67 -81 -32 -17 -83 -49 -113 -70 l-55
-39 -108 72 c-130 86 -156 105 -302 222 -128 103 -146 123 -179 207 -21 52
-22 61 -11 103 12 41 11 50 -5 80 -29 53 -83 59 -117 13 -17 -23 -23 -51 -19
-103 0 -10 24 -41 51 -68 28 -27 59 -67 71 -89 24 -49 68 -93 190 -194 128
-105 117 -97 205 -156 44 -29 81 -55 84 -58 3 -3 21 -14 40 -25 68 -36 68 -36
-59 -164 -65 -64 -137 -144 -162 -177 -24 -33 -46 -62 -50 -65 -32 -28 -161
-253 -214 -372 -38 -88 -55 -104 -83 -76 -7 7 -12 9 -12 5 0 -4 -16 -1 -35 7
-20 9 -36 15 -38 14 -13 -4 -90 29 -97 42 -9 16 -11 419 -2 453 2 9 14 17 26
17 69 1 158 77 180 154 51 182 -124 348 -295 280 -154 -62 -181 -265 -52 -382
21 -18 47 -35 60 -38 13 -4 23 -11 24 -18 0 -6 0 -117 0 -246 -1 -129 2 -240
7 -246 9 -15 91 -54 112 -54 9 0 20 -3 24 -7 4 -5 11 -8 14 -8 14 -1 112 -27
112 -30 0 -1 -9 -31 -21 -66 -11 -35 -22 -72 -24 -83 -3 -10 -11 -43 -20 -72
-8 -29 -18 -75 -21 -101 -3 -26 -7 -50 -9 -53 -4 -6 -22 -180 -24 -235 -1 -7
-148 -9 -428 -7 -235 2 -438 1 -450 -3 -24 -6 -31 -29 -12 -41 6 -4 39 -6 73
-6 406 3 807 3 814 -2 4 -2 9 -39 10 -82 2 -42 4 -80 6 -83 2 -3 7 -35 11 -71
8 -76 9 -82 24 -135 6 -22 12 -51 15 -65 2 -14 5 -25 6 -25 1 0 3 -7 5 -15 15
-77 100 -279 173 -415 36 -66 93 -160 104 -171 6 -5 62 33 125 86 7 5 14 10
17 10 6 0 107 65 124 80 9 8 9 16 2 28 -6 9 -22 35 -35 57 -61 99 -134 261
-181 400 -13 37 -45 191 -51 245 -10 78 -10 389 0 445 6 39 11 68 23 130 8 41
61 216 79 259 9 20 15 37 14 38 -1 2 8 19 20 38 11 19 29 52 38 73 10 20 21
37 25 37 5 0 8 7 8 15 0 8 5 15 10 15 6 0 10 4 10 10 0 46 202 284 331 390 30
25 56 47 59 51 9 10 131 89 138 89 4 0 32 15 62 33 72 43 315 135 405 153 155
31 223 38 370 38 99 0 240 -9 240 -14 0 -1 16 -3 35 -5 31 -4 57 -10 140 -30
14 -3 38 -8 54 -11 35 -7 184 -59 246 -86 112 -50 300 -156 300 -170 0 -4 6
-8 14 -8 25 0 356 -338 356 -364 0 -3 16 -30 35 -60 42 -66 117 -206 109 -206
-2 0 1 -10 8 -22 7 -13 12 -25 13 -28 0 -3 8 -25 17 -50 37 -102 78 -270 82
-335 2 -17 5 -36 9 -41 7 -12 6 -344 -1 -358 -2 -4 -6 -28 -8 -53 -4 -47 -56
-229 -92 -318 -31 -77 -112 -243 -154 -315 -21 -36 -38 -67 -38 -70 0 -3 15
-14 33 -24 62 -37 182 -118 208 -142 24 -23 26 -24 41 -7 16 18 168 322 172
345 2 7 7 24 13 38 40 101 98 291 107 355 4 22 8 51 11 65 4 27 16 162 18 220
2 30 6 35 27 36 63 4 153 5 390 5 140 0 262 0 270 0 8 0 36 -1 61 -2 56 -2 89
8 89 27 0 8 -1 15 -2 16 -2 1 -192 5 -422 8 l-419 5 -3 50 c-2 28 -6 68 -9 90
-3 22 -7 54 -9 70 -9 67 -17 111 -22 126 -2 10 -6 30 -8 45 -3 16 -16 69 -30
118 -15 50 -25 94 -23 99 1 5 63 27 137 48 74 21 145 43 160 49 l25 10 0 248
c0 136 -4 253 -9 261 -6 9 2 23 25 45 42 38 57 67 67 126 37 209 -188 351
-355 224 -30 -23 -82 -104 -67 -104 4 0 2 -6 -3 -12 -17 -21 -8 -120 15 -163
43 -85 129 -135 217 -125 30 3 55 4 55 1 1 -4 2 -111 3 -238 l2 -233 -25 -9
c-38 -15 -131 -42 -165 -48 -16 -3 -38 -9 -47 -14 -39 -21 -54 -11 -83 59 -16
37 -34 74 -42 83 -7 8 -13 20 -13 25 0 8 -111 201 -142 248 -7 10 -44 58 -82
105 -66 82 -103 120 -245 254 -33 32 -61 62 -61 66 0 4 48 39 108 76 59 38
109 72 112 76 3 4 30 24 60 45 143 99 271 207 303 257 19 29 51 71 72 95 22
23 40 53 42 65 11 68 -36 139 -86 131 -60 -10 -88 -82 -55 -146 17 -33 14 -57
-17 -123 -18 -39 -58 -77 -129 -125 -13 -8 -30 -22 -39 -31 -9 -8 -32 -26 -51
-39 -19 -14 -39 -28 -45 -33 -5 -5 -50 -36 -100 -71 -171 -118 -200 -139 -206
-149 -4 -5 -40 11 -83 37 -41 25 -78 46 -80 46 -2 0 -27 16 -56 35 -29 19 -63
38 -76 41 -17 4 -24 13 -24 30 0 13 5 24 10 24 21 0 140 131 148 163 6 25 14
32 35 34 96 7 161 127 123 227 -23 59 -41 73 -201 156 -77 40 -148 79 -157 88
-10 8 -18 11 -18 7 0 -4 -8 -1 -17 7 -44 37 -84 43 -303 44 -118 1 -223 3
-232 3 -10 1 -25 20 -38 48 -11 26 -32 61 -45 79 -43 57 -147 92 -215 74z
m-153 -305 c24 -82 77 -125 168 -135 l50 -5 0 -172 0 -173 -45 -1 c-139 -3
-285 -16 -380 -34 -134 -26 -329 -86 -436 -135 l-41 -18 -69 64 c-37 35 -72
64 -76 64 -4 0 -8 6 -8 14 0 8 -5 16 -11 18 -7 2 -12 24 -13 48 -1 42 1 45 26
48 38 5 94 70 103 121 10 61 -2 96 -51 146 -37 39 -41 47 -26 52 9 4 62 33
117 66 55 33 115 65 133 71 21 7 121 11 288 11 l257 0 14 -50z m938 26 c45
-24 78 -44 85 -51 9 -9 104 -61 133 -73 29 -12 36 -27 13 -27 -22 0 -103 -78
-111 -107 -23 -82 13 -160 86 -185 16 -5 29 -13 29 -17 0 -30 -174 -228 -185
-211 -4 7 -167 64 -215 76 -115 28 -153 36 -214 49 -80 16 -170 27 -235 30
-34 1 -46 6 -51 21 -4 10 -7 91 -6 179 l1 160 31 15 c51 25 88 62 112 112 26
56 14 54 302 52 169 -1 188 -3 225 -23z"/>
<path d="M4148 5264 c-2 -1 -26 -5 -53 -8 -28 -3 -50 -5 -50 -6 0 -1 -7 -3
-15 -5 -8 -1 -35 -8 -60 -15 -25 -7 -52 -14 -60 -16 -8 -2 -42 -10 -75 -19
-33 -9 -67 -17 -75 -19 -9 -1 -20 -4 -25 -7 -6 -3 -38 -14 -72 -25 -35 -10
-63 -22 -63 -26 0 -5 -9 -8 -20 -8 -11 0 -20 -3 -20 -8 0 -4 -15 -16 -34 -26
-69 -37 -185 -166 -249 -276 -27 -48 -76 -169 -83 -210 -3 -14 -9 -43 -14 -65
-12 -52 -4 -330 10 -365 1 -3 2 -8 2 -11 -2 -14 48 -161 74 -216 15 -32 47
-81 70 -110 24 -28 44 -53 44 -55 0 -2 -10 -4 -22 -5 -36 -3 -161 -69 -200
-106 -104 -98 -146 -249 -103 -372 17 -48 82 -144 98 -145 4 0 20 -11 35 -25
14 -13 58 -36 97 -50 97 -35 189 -39 290 -11 56 15 120 52 164 93 43 42 43 43
43 -117 0 -128 -9 -240 -21 -273 -20 -51 -171 -167 -218 -167 -7 0 -13 -4 -13
-10 0 -5 -4 -10 -10 -10 -8 0 -79 -31 -175 -76 -16 -7 -49 -20 -71 -28 -23 -8
-64 -26 -90 -40 -27 -14 -53 -26 -59 -26 -5 0 -39 -12 -75 -26 -36 -15 -75
-30 -87 -35 -13 -5 -33 -13 -45 -19 -13 -5 -97 -36 -188 -69 -182 -65 -240
-90 -240 -104 0 -9 192 -202 241 -242 59 -49 171 -127 254 -178 80 -48 251
-140 265 -141 3 -1 37 -13 75 -28 86 -33 107 -40 120 -43 6 -2 48 -14 95 -28
72 -22 204 -48 317 -62 172 -23 419 -23 543 0 14 2 52 9 85 14 122 21 197 39
268 66 20 8 37 13 37 10 0 -3 24 6 53 18 28 13 55 24 60 25 19 4 120 50 205
94 112 57 228 134 341 224 101 81 294 275 284 284 -5 4 -37 17 -73 30 -86 31
-347 134 -435 172 -64 28 -141 63 -265 121 -25 12 -48 21 -52 19 -5 -1 -8 2
-8 8 0 5 -7 10 -15 10 -8 0 -23 4 -33 10 -9 5 -64 32 -122 59 -59 27 -125 66
-150 90 -25 22 -49 41 -53 41 -4 0 -17 21 -29 47 -17 38 -21 70 -23 170 -1 75
2 123 8 123 6 0 35 -12 66 -27 88 -43 170 -40 284 10 15 6 27 16 27 20 0 5 4
6 8 3 8 -4 92 68 92 79 0 3 11 18 25 33 37 39 33 54 -11 46 -66 -12 -163 -10
-209 5 -37 11 -50 22 -65 52 -22 42 -16 52 37 63 38 9 126 69 179 123 69 69
193 239 245 334 13 24 28 47 32 50 5 3 8 9 7 13 -1 4 1 17 5 29 4 12 9 29 12
37 13 40 14 130 2 170 -7 25 -13 48 -13 51 -1 4 -16 26 -34 49 -31 37 -62 57
-143 88 -25 10 -27 15 -27 74 -1 185 -55 369 -160 552 -38 67 -158 189 -228
233 -60 38 -195 93 -265 109 -29 6 -196 13 -201 8z"/>
<path d="M5172 5119 l-22 -20 79 -80 c76 -75 161 -185 161 -208 0 -6 5 -11 10
-11 6 0 10 -6 10 -14 0 -8 4 -16 8 -18 15 -6 110 -202 137 -283 26 -79 58
-203 70 -280 14 -79 12 -306 -2 -384 -21 -114 -53 -207 -77 -223 -11 -8 23
-40 35 -32 3 2 16 -6 27 -17 12 -11 22 -15 22 -9 0 15 0 15 21 87 23 82 26 95
35 181 17 154 4 382 -28 497 -7 22 -12 47 -13 55 -1 8 -4 22 -7 30 -3 8 -18
53 -32 100 -57 177 -190 416 -297 534 -89 97 -107 116 -111 116 -2 0 -14 -9
-26 -21z"/>
<path d="M2969 5028 c-50 -51 -98 -105 -107 -120 -9 -15 -19 -28 -23 -28 -4 0
-12 -13 -19 -30 -7 -16 -17 -30 -23 -30 -6 0 -7 -3 -4 -7 4 -3 1 -13 -7 -22
-21 -24 -100 -186 -129 -266 -38 -102 -67 -225 -84 -350 -12 -89 -6 -307 11
-381 2 -12 7 -39 10 -60 4 -22 9 -47 12 -56 3 -9 7 -27 9 -40 7 -38 46 -142
60 -161 10 -14 18 -16 40 -7 14 6 31 8 36 4 5 -3 9 -1 9 5 0 5 -5 13 -10 16
-24 15 -83 158 -94 230 -8 49 -15 88 -21 115 -7 28 -7 291 -1 330 2 14 7 45
11 70 15 110 53 241 97 337 15 34 28 66 28 71 0 6 6 17 13 24 6 7 23 33 36 58
56 105 159 229 249 300 31 25 38 43 26 74 -12 30 -36 15 -125 -76z"/>
<path d="M1559 4608 c-36 -22 -59 -67 -59 -115 0 -50 18 -82 60 -111 71 -49
177 -6 201 80 11 44 -3 105 -27 115 -8 3 -12 9 -9 13 7 11 -77 40 -109 38 -16
-1 -41 -10 -57 -20z"/>
<path d="M6563 4623 c-12 -2 -38 -20 -57 -39 -36 -36 -47 -79 -34 -132 9 -33
68 -91 96 -93 105 -9 182 62 168 154 -6 37 -44 96 -63 99 -4 0 -18 4 -31 9
-24 9 -40 10 -79 2z"/>
<path d="M1670 3684 c-95 -28 -137 -120 -99 -216 11 -26 58 -69 90 -80 14 -5
15 -37 14 -259 -1 -246 0 -255 22 -300 31 -62 59 -87 81 -72 25 16 18 57 -18
102 -35 43 -33 23 -31 384 1 133 2 137 22 137 32 0 104 49 117 79 32 74 27
131 -16 178 -48 52 -113 69 -182 47z"/>
<path d="M6516 3692 c-66 -14 -126 -86 -126 -150 0 -63 45 -129 103 -151 15
-6 27 -18 28 -28 0 -10 1 -123 1 -251 l0 -233 -27 -27 c-41 -41 -50 -71 -27
-93 27 -24 61 -6 87 46 18 37 20 61 20 308 1 276 2 286 40 287 15 0 63 47 79
78 58 113 -49 242 -178 214z"/>
<path d="M5255 2815 c-52 -53 -95 -99 -95 -103 0 -4 16 -17 35 -30 19 -12 35
-27 35 -32 0 -6 7 -10 15 -10 14 0 65 -45 65 -58 0 -4 17 -16 37 -28 l37 -21
59 61 c33 34 71 76 85 94 l25 33 -24 27 c-43 47 -164 162 -172 162 -4 0 -50
-43 -102 -95z"/>
<path d="M2869 2863 c-57 -50 -73 -66 -115 -113 l-36 -40 25 -33 c26 -33 76
-86 118 -124 l25 -22 35 32 c33 30 84 74 153 131 l29 24 -33 29 c-19 15 -62
56 -96 91 l-62 63 -43 -38z"/>
<path d="M5960 2500 c0 -5 -9 -12 -21 -15 -24 -8 -59 -79 -53 -109 14 -75 30
-102 71 -125 90 -48 211 49 183 147 -12 43 -35 73 -70 92 -28 16 -110 23 -110
10z"/>
<path d="M2165 2492 c-58 -13 -102 -84 -91 -146 11 -59 71 -107 126 -100 14 1
30 3 37 3 7 1 28 15 47 32 64 56 57 157 -15 194 -33 18 -73 24 -104 17z"/>
</g>
</svg>
