<?xml version="1.0" standalone="no"?>
<!DOCTYPE svg PUBLIC "-//W3C//DTD SVG 20010904//EN"
 "http://www.w3.org/TR/2001/REC-SVG-20010904/DTD/svg10.dtd">
<svg version="1.0" xmlns="http://www.w3.org/2000/svg"
 width="96.000000pt" height="96.000000pt" viewBox="0 0 96.000000 96.000000"
 preserveAspectRatio="xMidYMid meet">
<metadata>
Created by potrace 1.14, written by Peter Selinger 2001-2017
</metadata>
<g transform="translate(0.000000,96.000000) scale(0.100000,-0.100000)"
fill="#000000" stroke="none">
<path d="M442 935 c-13 -15 -17 -25 -9 -25 6 -1 21 -11 31 -24 l20 -24 19 24
c10 13 25 24 33 24 8 0 14 4 14 10 0 5 -6 7 -14 4 -8 -3 -19 3 -26 15 -15 28
-42 26 -68 -4z"/>
<path d="M355 920 c-3 -5 1 -10 10 -10 9 0 13 5 10 10 -3 6 -8 10 -10 10 -2 0
-7 -4 -10 -10z"/>
<path d="M569 918 c-12 -8 -12 -9 1 -5 18 5 70 -19 70 -33 0 -5 -5 -12 -10
-15 -7 -4 -6 -13 1 -27 17 -32 -7 -50 -51 -38 -19 5 -47 12 -62 15 -14 3 -29
13 -31 23 -4 16 -5 16 -6 0 0 -10 -4 -18 -8 -19 -29 -2 -69 -11 -116 -24 -37
-10 -68 15 -47 39 7 9 10 25 7 36 -3 12 1 24 11 30 10 5 13 9 7 9 -20 -1 -70
-36 -71 -50 0 -8 7 -22 15 -31 41 -45 41 -43 -5 -82 -25 -21 -59 -62 -76 -93
-27 -48 -34 -54 -57 -49 l-26 5 26 -12 c21 -10 24 -16 18 -37 -4 -14 -7 -39
-8 -56 -1 -28 -3 -30 -33 -28 -33 3 -33 3 -4 -4 26 -6 30 -13 42 -69 12 -57
41 -123 54 -123 3 0 13 7 24 15 18 13 18 16 3 48 -22 46 -34 105 -31 154 2 44
23 118 30 110 3 -2 0 -17 -6 -32 -14 -37 -15 -149 -1 -172 9 -14 10 -9 4 22
-14 82 1 155 43 210 18 25 32 45 29 45 -9 0 -45 -40 -45 -50 0 -5 -5 -10 -10
-10 -23 0 27 63 77 98 141 100 350 32 413 -134 27 -73 24 -167 -8 -230 -21
-41 -21 -42 -2 -59 10 -9 23 -14 29 -11 15 9 51 113 51 146 0 17 7 33 18 39
16 10 16 10 0 11 -10 0 -18 8 -19 18 -1 34 -8 74 -14 80 -3 3 8 11 25 18 24
10 30 19 29 41 -2 27 -2 27 -6 3 -5 -26 -19 -40 -40 -40 -6 0 -24 24 -41 53
-16 28 -39 61 -51 71 l-22 20 62 57 c35 32 58 62 55 68 -12 19 -26 12 -26 -12
0 -16 -16 -37 -48 -64 -46 -39 -49 -40 -75 -27 -33 18 -34 24 -2 54 14 13 25
31 25 41 0 23 -91 71 -111 57z"/>
<path d="M150 869 c0 -27 102 -130 116 -117 2 2 -16 18 -40 35 -30 21 -46 41
-51 62 -6 29 -25 44 -25 20z"/>
<path d="M119 773 c-28 -6 -34 -73 -8 -73 5 0 10 -12 10 -27 1 -22 3 -24 6 -7
2 12 13 30 24 40 10 9 19 22 19 29 0 18 -33 42 -51 38z"/>
<path d="M807 769 c-25 -14 -22 -56 6 -70 12 -7 25 -17 29 -23 5 -6 8 -2 8 11
0 12 4 24 9 27 13 9 1 45 -18 55 -10 6 -24 5 -34 0z"/>
<path d="M432 695 c-49 -15 -78 -38 -98 -77 -18 -35 -18 -99 1 -144 13 -31 13
-36 -1 -41 -23 -8 -43 -55 -34 -78 16 -42 57 -59 93 -40 23 12 26 11 29 -3 12
-57 -17 -83 -140 -130 -49 -18 -71 -32 -70 -42 5 -22 98 -88 148 -104 139 -45
261 -18 367 81 l31 30 -84 38 c-103 46 -134 69 -134 99 0 19 4 22 23 19 14 -3
33 4 47 16 25 20 25 20 3 21 -27 0 -40 18 -19 26 22 9 76 94 76 121 0 12 -9
28 -20 35 -11 7 -20 24 -20 38 -1 43 -37 108 -72 130 -38 23 -65 24 -126 5z"/>
<path d="M672 663 c43 -49 63 -107 63 -186 -1 -54 2 -71 8 -55 16 41 1 131
-32 196 -17 34 -36 62 -43 62 -7 0 -5 -7 4 -17z"/>
<path d="M36 581 c-3 -4 1 -17 9 -27 13 -16 16 -17 25 -4 5 8 10 21 10 28 0
13 -36 17 -44 3z"/>
<path d="M886 581 c-7 -11 3 -41 14 -41 13 0 32 29 25 40 -8 12 -32 13 -39 1z"/>
<path d="M0 476 c0 -2 7 -6 15 -10 8 -3 15 -1 15 4 0 6 -7 10 -15 10 -8 0 -15
-2 -15 -4z"/>
<path d="M873 473 c15 -2 39 -2 55 0 15 2 2 4 -28 4 -30 0 -43 -2 -27 -4z"/>
<path d="M51 416 c-13 -15 4 -66 21 -66 5 0 7 4 4 9 -3 5 1 11 9 15 21 8 19
33 -4 45 -14 8 -22 7 -30 -3z"/>
<path d="M883 423 c-16 -6 -17 -35 -2 -50 6 -6 10 -33 8 -62 -2 -28 -1 -51 4
-51 4 0 7 24 7 54 0 30 5 58 10 61 27 17 3 58 -27 48z"/>
<path d="M60 314 c0 -16 5 -36 10 -44 6 -10 7 -2 3 25 -7 49 -13 58 -13 19z"/>
<path d="M256 264 c-16 -15 -16 -18 -2 -33 15 -14 18 -14 33 2 16 15 16 18 2
33 -15 14 -18 14 -33 -2z"/>
<path d="M670 264 c-11 -12 -10 -18 3 -32 16 -15 18 -15 34 0 13 14 14 20 3
32 -7 9 -16 16 -20 16 -4 0 -13 -7 -20 -16z"/>
<path d="M136 201 c-10 -15 5 -40 20 -34 18 7 18 43 0 43 -8 0 -17 -4 -20 -9z"/>
<path d="M786 201 c-7 -11 3 -41 13 -41 14 0 29 23 24 36 -6 16 -29 19 -37 5z"/>
</g>
</svg>
